<?xml version="1.0" encoding="UTF-8"?>
<svg xmlns="http://www.w3.org/2000/svg" xmlns:xlink="http://www.w3.org/1999/xlink" id="Layer_1" data-name="Layer 1" width="305mm" height="162mm" viewBox="0 0 864.57 459.21">
  <defs>
    <style>
      .cls-1, .cls-2 {
        fill: none;
      }

      .cls-1, .cls-4, .cls-5, .cls-6, .cls-7, .cls-9 {
        stroke-miterlimit: 10;
        stroke-width: 3px;
      }

      .cls-1 {
        stroke: url(#linear-gradient);
      }

      .cls-3 {
        fill: #96c;
      }

      .cls-4 {
        fill: url(#linear-gradient-2);
        stroke: url(#linear-gradient-3);
      }

      .cls-5 {
        fill: url(#linear-gradient-4);
        stroke: url(#linear-gradient-5);
      }

      .cls-6 {
        fill: url(#linear-gradient-6);
        stroke: url(#linear-gradient-7);
      }

      .cls-7 {
        fill: url(#linear-gradient-8);
        stroke: url(#linear-gradient-9);
      }

      .cls-8 {
        clip-path: url(#clip-path);
      }

      .cls-9 {
        fill: url(#linear-gradient-12);
        stroke: url(#linear-gradient-13);
      }

      .cls-10 {
        clip-path: url(#clip-path-2);
      }

      .cls-11 {
        fill: url(#linear-gradient-15);
      }

      .cls-12 {
        clip-path: url(#clip-path-3);
      }

      .cls-13 {
        fill: url(#linear-gradient-16);
      }

      .cls-14 {
        clip-path: url(#clip-path-4);
      }

      .cls-15 {
        fill: url(#linear-gradient-17);
      }

      .cls-16 {
        clip-path: url(#clip-path-5);
      }

      .cls-17 {
        fill: url(#linear-gradient-18);
      }

      .cls-18 {
        clip-path: url(#clip-path-6);
      }

      .cls-19 {
        fill: url(#linear-gradient-19);
      }

      .cls-20 {
        clip-path: url(#clip-path-7);
      }

      .cls-21 {
        fill: url(#linear-gradient-20);
      }

      .cls-22 {
        clip-path: url(#clip-path-8);
      }

      .cls-23 {
        fill: url(#linear-gradient-21);
      }
    </style>
    <linearGradient id="linear-gradient" x1="431.52" y1="163.3" x2="474.23" y2="163.3" gradientUnits="userSpaceOnUse">
      <stop offset="0" stop-color="#f667ad"></stop>
      <stop offset="0.5" stop-color="#f667ad"></stop>
      <stop offset="0.69" stop-color="#f348a3"></stop>
      <stop offset="0.88" stop-color="#f02e9b"></stop>
      <stop offset="1" stop-color="#f02e9b"></stop>
    </linearGradient>
    <linearGradient id="linear-gradient-2" x1="220.38" y1="584.83" x2="221.38" y2="584.83" gradientTransform="matrix(176.9, 0, 0, -176.9, -38787.86, 103602.64)" xlink:href="#linear-gradient"></linearGradient>
    <linearGradient id="linear-gradient-3" x1="194.93" y1="149.87" x2="373.82" y2="149.87" xlink:href="#linear-gradient"></linearGradient>
    <linearGradient id="linear-gradient-4" x1="219.37" y1="586.16" x2="220.37" y2="586.16" gradientTransform="matrix(67.6, 0, 0, -67.6, -14534.37, 39784.86)" xlink:href="#linear-gradient"></linearGradient>
    <linearGradient id="linear-gradient-5" x1="293.27" y1="162.88" x2="362.86" y2="162.88" xlink:href="#linear-gradient"></linearGradient>
    <linearGradient id="linear-gradient-6" x1="218.1" y1="587.84" x2="219.1" y2="587.84" gradientTransform="matrix(38, 0, 0, -38, -7873.08, 22529.6)" xlink:href="#linear-gradient"></linearGradient>
    <linearGradient id="linear-gradient-7" x1="413.91" y1="191.51" x2="453.91" y2="191.51" xlink:href="#linear-gradient"></linearGradient>
    <linearGradient id="linear-gradient-8" x1="219.69" y1="585.74" x2="220.69" y2="585.74" gradientTransform="matrix(84.05, 0, 0, -84.05, -18098.54, 49381.21)" xlink:href="#linear-gradient"></linearGradient>
    <linearGradient id="linear-gradient-9" x1="365.19" y1="150.74" x2="451.24" y2="150.74" xlink:href="#linear-gradient"></linearGradient>
    <clipPath id="clip-path">
      <path class="cls-1" d="M459.56,140.54a26.94,26.94,0,0,0-10.71,6,25.37,25.37,0,0,0-6.71,10A26.9,26.9,0,0,1,460,142.05a21.83,21.83,0,0,1,5.74-.67,11.24,11.24,0,0,1,2.76.4,4,4,0,0,1,2.07,1.19,1.37,1.37,0,0,1,.22.41c0,.07.06.14.05.15s0,.09,0,.15a4.09,4.09,0,0,1-.37,1.12,18.83,18.83,0,0,1-1.45,2.46c-1.11,1.62-2.35,3.18-3.61,4.71-2.52,3.09-5.21,6.07-7.91,9s-5.46,5.89-8.21,8.82L432.6,187.34q9.13-7.92,17.75-16.4c5.74-5.66,11.36-11.45,16.56-17.68,1.28-1.57,2.54-3.18,3.69-4.89a20.61,20.61,0,0,0,1.59-2.75,5.79,5.79,0,0,0,.53-1.75,2.3,2.3,0,0,0-.18-1.17,3.28,3.28,0,0,0-.52-.89A5.77,5.77,0,0,0,469,140a13.06,13.06,0,0,0-3.21-.4h-.08a21.7,21.7,0,0,0-6.1.91"></path>
    </clipPath>
    <linearGradient id="linear-gradient-12" x1="218.33" y1="587.55" x2="219.33" y2="587.55" gradientTransform="matrix(41.17, 0, 0, -41.17, -8557.94, 24355.46)" xlink:href="#linear-gradient"></linearGradient>
    <linearGradient id="linear-gradient-13" x1="431.1" y1="163.49" x2="474.27" y2="163.49" xlink:href="#linear-gradient"></linearGradient>
    <clipPath id="clip-path-2">
      <path class="cls-2" d="M571.55,52.48a43.8,43.8,0,0,0-9.69,13.26,25.29,25.29,0,0,0-2.44,14.69c1.12,7.51,4.72,14.33,11,20.85a3.75,3.75,0,0,0,2.67,1.46,4,4,0,0,0,2.66-1.37,42.73,42.73,0,0,0,8.15-9.93c2.1-3.59,4.58-8.92,4.53-13.88a29.7,29.7,0,0,0-1.76-10.45c-2.12-5.95-5.79-10.66-9.1-14.49a4.09,4.09,0,0,0-3-1.71,4.48,4.48,0,0,0-3,1.57"></path>
    </clipPath>
    <linearGradient id="linear-gradient-15" x1="217.24" y1="588.99" x2="218.24" y2="588.99" gradientTransform="matrix(29.25, 0, 0, -29.25, -5795.52, 17306.11)" xlink:href="#linear-gradient"></linearGradient>
    <clipPath id="clip-path-3">
      <path class="cls-2" d="M521.39,92c-1.14,1.15-1.12,2.84-1.11,5.4a22.17,22.17,0,0,0,.63,6c1.17,5.47,3.15,9.43,6.22,12.48,5,4.92,11.38,7.34,20.19,7.61h.29c3.55,0,3.65-3,3.67-4a35,35,0,0,0-1.86-12.08A21,21,0,0,0,542.37,97c-4.23-3.27-9.27-5.12-15.84-5.81-.9-.09-1.62-.15-2.19-.15a4,4,0,0,0-2.95,1"></path>
    </clipPath>
    <linearGradient id="linear-gradient-16" x1="217.46" y1="588.71" x2="218.46" y2="588.71" gradientTransform="matrix(31.04, 0, 0, -31.04, -6229.89, 18381.52)" xlink:href="#linear-gradient"></linearGradient>
    <clipPath id="clip-path-4">
      <path class="cls-2" d="M618.93,70.28a25.94,25.94,0,0,0-12.52,3.13,15.88,15.88,0,0,0-6.07,5.78,25,25,0,0,0-3.57,11.67s0,1.28,0,1.32c0,1.43.09,4.42,3.88,4.42l.7,0a27.43,27.43,0,0,0,11.07-2.73,17.06,17.06,0,0,0,8.18-8.48,31.38,31.38,0,0,0,2.46-10.79,4.1,4.1,0,0,0-.87-3.15,4.25,4.25,0,0,0-3.2-1.14Z"></path>
    </clipPath>
    <linearGradient id="linear-gradient-17" x1="216.82" y1="589.55" x2="217.82" y2="589.55" gradientTransform="matrix(26.31, 0, 0, -26.31, -5107.12, 15592.98)" xlink:href="#linear-gradient"></linearGradient>
    <clipPath id="clip-path-5">
      <path class="cls-2" d="M615.26,118.21a29.9,29.9,0,0,0-5.36,4.39c-4.3,4.71-6.17,9.59-5.69,14.93a27.17,27.17,0,0,0,4.5,12.27,3.16,3.16,0,0,0,2.72,1.64,4.11,4.11,0,0,0,2.32-.85,28.63,28.63,0,0,0,7.34-7c2.51-3.51,3.69-7,3.51-10.17.09-6-2.15-10.48-4.35-14.1a3.31,3.31,0,0,0-2.89-1.83,3.79,3.79,0,0,0-2.11.72"></path>
    </clipPath>
    <linearGradient id="linear-gradient-18" x1="215.63" y1="591.13" x2="216.63" y2="591.13" gradientTransform="matrix(20.49, 0, 0, -20.49, -3813.54, 12245.15)" xlink:href="#linear-gradient"></linearGradient>
    <clipPath id="clip-path-6">
      <path class="cls-2" d="M586.74,113.89l-.73.42c-.74.41-1.47.82-2.17,1.29-6.3,4.2-9.34,9.34-9.3,15.72a26.59,26.59,0,0,0,2.35,10.08c.53,1.07,1.33,2.67,3.19,2.67a5.27,5.27,0,0,0,2.36-.73,26.24,26.24,0,0,0,5.42-3.6c7.19-6.2,8.44-14.14,3.82-24.26a3.28,3.28,0,0,0-3-2.14,3.87,3.87,0,0,0-1.92.56"></path>
    </clipPath>
    <linearGradient id="linear-gradient-19" x1="215.46" y1="591.36" x2="216.46" y2="591.36" gradientTransform="matrix(19.86, 0, 0, -19.86, -3704.44, 11872.85)" xlink:href="#linear-gradient"></linearGradient>
    <clipPath id="clip-path-7">
      <path class="cls-2" d="M557.5,150.49a4.51,4.51,0,0,0-1,3.39,18.6,18.6,0,0,0,1.77,7.78c2.19,4.58,8,8.18,13.29,8.18l.89,0a3.38,3.38,0,0,0,3.4-3.29c0-.37,0-.74,0-1.63-.54-9.21-5.52-14.37-14.84-15.32l-.86,0a3.65,3.65,0,0,0-2.66,1"></path>
    </clipPath>
    <linearGradient id="linear-gradient-20" x1="215.32" y1="591.54" x2="216.32" y2="591.54" gradientTransform="matrix(19.37, 0, 0, -19.37, -3615.2, 11620.3)" xlink:href="#linear-gradient"></linearGradient>
    <clipPath id="clip-path-8">
      <path class="cls-2" d="M534.73,55.87a4.11,4.11,0,0,0-1,3c0,7.07,4.13,11.51,11.4,12.21h.24a4.15,4.15,0,0,0,3.12-1,3.65,3.65,0,0,0,.91-2.69c-.13-7.26-4.45-11.92-12.12-12.49a3.52,3.52,0,0,0-2.57.94"></path>
    </clipPath>
    <linearGradient id="linear-gradient-21" x1="213.98" y1="593.32" x2="214.98" y2="593.32" gradientTransform="matrix(15.68, 0, 0, -15.68, -2821.1, 9365.12)" xlink:href="#linear-gradient"></linearGradient>
  </defs>
  <title>Help Apeksha Website Logo_02</title>
  <g>
    <path class="cls-3" d="M47.4,424.64l-7.08,32H2.58l38.6-144.53h48l38.17,144.53H88.57l-7.93-32ZM76.13,397,70.34,370.6c-1.93-8.15-4.29-21.23-6.22-29.81h-.43c-2.14,8.58-4.29,21.87-6,29.81L51.9,397Z"></path>
    <path class="cls-3" d="M144.11,314c9.86-1.72,24-3,42.89-3,19.94,0,34.52,3.22,44.82,11.37,9.65,7.5,15.44,20.16,15.44,34.09,0,15.44-5.15,27.88-13.94,36.24-10.94,9.86-27.45,14.37-44.39,14.37a81.21,81.21,0,0,1-8.15-.43v50H144.11Zm36.67,63.9a34.82,34.82,0,0,0,7.29.43c14.58,0,22.52-8.36,22.52-20.37,0-10.94-6.43-18.66-19.94-18.66a46.91,46.91,0,0,0-9.86.86Z"></path>
    <path class="cls-3" d="M347.6,397.4H301.71v28.52H353v30.66H264.62V312.06h85.56v30.66H301.71v24.45H347.6Z"></path>
    <path class="cls-3" d="M372.9,312.06h36.67v62H410c2.79-5.58,5.58-11.36,8.36-16.94l24.23-45h44.17l-41.39,62.19,42.89,82.34H445.81L419.44,398.9l-9.86,13.72v44H372.9Z"></path>
    <path class="cls-3" d="M500.49,419.92a79.46,79.46,0,0,0,33.67,7.93c13.08,0,19.3-4.93,19.3-12.22,0-7.51-6.22-11.58-21.66-17.8-24-10.29-36.45-24.45-36.45-42.67,0-25.09,19.73-45,55.32-45,15,0,26.59,3,34.52,6.65L578.12,347a65.77,65.77,0,0,0-27.66-6.22c-11.58,0-17.8,4.72-17.8,11.15,0,7.08,6.22,10.29,24,18C580.9,379.82,591,394.19,591,412.84c0,25.52-19.73,45.67-58.33,45.67-16.08,0-31.31-4.07-38.6-7.72Z"></path>
    <path class="cls-3" d="M646.09,312.06v54.47h40.1V312.06h37.1V456.59h-37.1V399.33h-40.1v57.25H609V312.06Z"></path>
    <path class="cls-3" d="M782.47,424.64l-7.08,32H737.65l38.6-144.53h48l38.17,144.53H823.64l-7.93-32ZM811.2,397l-5.79-26.37c-1.93-8.15-4.29-21.23-6.22-29.81h-.43c-2.14,8.58-4.29,21.87-6,29.81L787,397Z"></path>
  </g>
  <g>
    <g>
      <path class="cls-4" d="M211.74,157.71s-15.23-1-15.32-13.77a18.61,18.61,0,0,1,.38-3.65c3.2-15.87,22-43.22,38.49-59C248.93,68.38,263.73,61,270.17,61a3.36,3.36,0,0,1,3.08,1.27,2.24,2.24,0,0,1,.18,1.09c0,13.23-33.48,161.07-38.1,171.16-1.31,2.88-3.49,4.26-5.89,4.25-6.4-.08-14.11-9-15-20.07,0-.51-.06-1-.06-1.62,0-16.34,15.65-56.82,47.36-67.67,20-6.79,56.6-8.09,82.13-8.09,16.26,0,28,.53,28,.53a.5.5,0,1,1,0,1s-11.72-.53-28-.53c-25.48,0-62.11,1.33-81.81,8-31.08,10.51-46.72,50.84-46.68,66.72,0,.54,0,1.06.06,1.54.8,10.65,8.54,19.23,14,19.15,2,0,3.75-1,5-3.67,4.48-9.61,38-158,38-170.74a4.52,4.52,0,0,0,0-.58c-.26-.46-1-.79-2.22-.79-5.84,0-20.75,7.23-34.18,20.06-16.37,15.57-35.14,43-38.2,58.43a17.61,17.61,0,0,0-.36,3.45c-.09,11.75,14.38,12.76,14.38,12.78a.5.5,0,1,1-.07,1Z"></path>
      <path class="cls-5" d="M361.35,34.42l-65.6,257.16a.5.5,0,0,1-1-.25l65.6-257.17a.5.5,0,0,1,1,.25"></path>
      <path class="cls-6" d="M452.33,131c-.06.1-18.47,30.4-35.94,121.4a.5.5,0,1,1-1-.19c17.49-91.09,36-121.67,36.06-121.73a.5.5,0,0,1,.85.52Z"></path>
      <path class="cls-7" d="M396.76,233c20.31-114.75,43-154.17,50.45-164.59a1.36,1.36,0,0,1,1.11-.58,1.4,1.4,0,0,1,1.41,1.38,1.48,1.48,0,0,1,0,.34c-17.53,74.67-52.51,98.52-71,98.56-7.14,0-12-3.7-12-9.49a11.28,11.28,0,0,1,.1-1.51c2.45-18.07,16.71-34.33,21.5-39.39a8.64,8.64,0,0,1,5.43-2.75l.61,0a3.25,3.25,0,0,1,3.46,3.56,14,14,0,0,1-1,4.65c-4.38,11.74-25.64,19.52-25.67,19.57a.5.5,0,0,1-.35-.94c.05,0,21.13-8,25.09-19a13.1,13.1,0,0,0,1-4.31c-.06-2.16-1-2.49-2.46-2.56l-.51,0a7.65,7.65,0,0,0-4.79,2.44c-4.74,5-18.87,21.19-21.23,38.83a10.28,10.28,0,0,0-.09,1.38c0,5.14,4.13,8.45,11,8.49,17.71,0,52.6-23.33,70.06-97.79v-.11a.41.41,0,0,0-.41-.39.35.35,0,0,0-.3.17c-7.31,10.22-30,49.52-50.28,164.18a.5.5,0,1,1-1-.17Z"></path>
      <path class="cls-6" d="M452.33,131c-.06.1-18.47,30.4-35.94,121.4a.5.5,0,1,1-1-.19c17.49-91.09,36-121.67,36.06-121.73a.5.5,0,0,1,.85.52Z"></path>
      <g>
        <g class="cls-8">
          <rect class="cls-9" x="432.6" y="139.63" width="40.16" height="47.7"></rect>
        </g>
        <path class="cls-1" d="M459.56,140.54a26.94,26.94,0,0,0-10.71,6,25.37,25.37,0,0,0-6.71,10A26.9,26.9,0,0,1,460,142.05a21.83,21.83,0,0,1,5.74-.67,11.24,11.24,0,0,1,2.76.4,4,4,0,0,1,2.07,1.19,1.37,1.37,0,0,1,.22.41c0,.07.06.14.05.15s0,.09,0,.15a4.09,4.09,0,0,1-.37,1.12,18.83,18.83,0,0,1-1.45,2.46c-1.11,1.62-2.35,3.18-3.61,4.71-2.52,3.09-5.21,6.07-7.91,9s-5.46,5.89-8.21,8.82L432.6,187.34q9.13-7.92,17.75-16.4c5.74-5.66,11.36-11.45,16.56-17.68,1.28-1.57,2.54-3.18,3.69-4.89a20.61,20.61,0,0,0,1.59-2.75,5.79,5.79,0,0,0,.53-1.75,2.3,2.3,0,0,0-.18-1.17,3.28,3.28,0,0,0-.52-.89A5.77,5.77,0,0,0,469,140a13.06,13.06,0,0,0-3.21-.4h-.08a21.7,21.7,0,0,0-6.1.91"></path>
      </g>
    </g>
    <path class="cls-3" d="M638.81,204.67A2,2,0,0,1,637,201.6l1.7-3a159.24,159.24,0,0,0,14.61-31,124,124,0,0,0,6.14-29.36,109.46,109.46,0,0,0-6.6-47.12C647.8,77.32,640,64,629,50.33a217.33,217.33,0,0,0-21.3-22.47A252.94,252.94,0,0,0,582.18,7.23a4.14,4.14,0,0,1-1.91-2.38,2,2,0,0,1,.6-2.2,2.06,2.06,0,0,1,1.34-.49,2,2,0,0,1,.93.22c4.47,2.29,8.79,4.7,13.21,7.35a177.85,177.85,0,0,1,24.86,18,154.53,154.53,0,0,1,35.31,43.5,121.62,121.62,0,0,1,12.72,36.56,102.23,102.23,0,0,1,1.61,23.05,117.25,117.25,0,0,1-9.7,41.31,131.16,131.16,0,0,1-18.95,30.47,5,5,0,0,1-2.85,2,1.86,1.86,0,0,1-.55.08"></path>
    <path class="cls-3" d="M569.64,245.94a2.44,2.44,0,0,1-1.11-.29c-9-5.21-18.73-7.53-27.12-9.11a105.56,105.56,0,0,0-19.4-1.81l-3.5,0c-1,0-2.68,0-3.52-1.35s-.15-2.82.75-4.61c2.66-5.33,7.11-9.07,13.6-11.46a50.58,50.58,0,0,1,15.83-2.95q1.67-.06,3.34-.06a69.83,69.83,0,0,1,23.2,3.67,30.06,30.06,0,0,1,9.07,4.54c.47.37.69.37.78.37a2.42,2.42,0,0,0,1-.35,100.5,100.5,0,0,1,27.56-9.74,75.23,75.23,0,0,1,14-1.37,66.75,66.75,0,0,1,12.54,1.18,53.26,53.26,0,0,1,16.37,6.2,4.56,4.56,0,0,1,2.25,2.31,2,2,0,0,1-1.87,2.87,2.12,2.12,0,0,1-.66-.11l-2.72-1a62.53,62.53,0,0,0-6.82-2.15,61.66,61.66,0,0,0-13.74-1.55,71.54,71.54,0,0,0-21.71,3.57,128.47,128.47,0,0,0-24.28,10.95l-1.12.61a4.66,4.66,0,0,1-2.27.69,3.6,3.6,0,0,1-3-1.59c-2.77-3.89-7.18-5.11-11.85-6.42a62.8,62.8,0,0,0-17.48-2.18c-2.28,0-4.56.08-6.84.2a29.34,29.34,0,0,0-7.47,1.43,96,96,0,0,1,29.21,9.68,54.84,54.84,0,0,1,8,5.3,2.6,2.6,0,0,1,1.2,2.74,2.05,2.05,0,0,1-1.8,1.63Z"></path>
    <g class="cls-10">
      <rect class="cls-11" x="558.7" y="50.91" width="29.77" height="51.82"></rect>
    </g>
    <path class="cls-3" d="M567.66,273.82q-3.65,0-7.27-.21c-17.22-1-30.79-4.51-42.69-11-7.88-4.32-13.68-9.47-17.73-15.73a30.43,30.43,0,0,1-5-12.23,2,2,0,0,1,2-2.31,2.6,2.6,0,0,1,.4,0,3.24,3.24,0,0,1,2.37,2.07c3.7,7.51,9.49,13.26,17.75,17.72s18.16,7.55,30.84,9.55c5.38.85,11,1.17,16.36,1.49l1,.06c1.61.1,3.21.13,4.82.13,3.26,0,6.5-.16,9.74-.35,15.52-.94,27.58-3.77,38-8.91a30.26,30.26,0,0,0,8.35-5.8,2.75,2.75,0,0,1,2.21-1.21,4.16,4.16,0,0,1,1.37.36,2.06,2.06,0,0,1,.8,2.83,30.65,30.65,0,0,1-9.58,9.9c-6.08,4.21-13.35,7.38-22.21,9.69a122.33,122.33,0,0,1-20.4,3.46c-3.68.33-7.4.49-11.08.49"></path>
    <g class="cls-12">
      <rect class="cls-13" x="520.13" y="91.01" width="31.27" height="32.48"></rect>
    </g>
    <g class="cls-14">
      <rect class="cls-15" x="596.78" y="70.28" width="26.45" height="26.31"></rect>
    </g>
    <g class="cls-16">
      <rect class="cls-17" x="603.73" y="117.49" width="21.05" height="33.95"></rect>
    </g>
    <g class="cls-18">
      <rect class="cls-19" x="574.5" y="113.33" width="21.8" height="30.73"></rect>
    </g>
    <g class="cls-20">
      <rect class="cls-21" x="556.47" y="149.53" width="19.4" height="20.31"></rect>
    </g>
    <g class="cls-22">
      <rect class="cls-23" x="533.73" y="54.93" width="15.71" height="16.2"></rect>
    </g>
  </g>
</svg>
